<svg width="52" height="52" viewBox="0 0 52 52" fill="none" xmlns="http://www.w3.org/2000/svg">
<rect width="52" height="52" rx="26" fill="#F5EFEB"/>
<path d="M19.4 19L19 17H17L19.4 19ZM19.4 19H35L31 27H21M19.4 19L21 27M21 27L18.707 29.293C18.077 29.923 18.523 31 19.414 31H31M31 31C30.4696 31 29.9609 31.2107 29.5858 31.5858C29.2107 31.9609 29 32.4696 29 33C29 33.5304 29.2107 34.0391 29.5858 34.4142C29.9609 34.7893 30.4696 35 31 35C31.5304 35 32.0391 34.7893 32.4142 34.4142C32.7893 34.0391 33 33.5304 33 33C33 32.4696 32.7893 31.9609 32.4142 31.5858C32.0391 31.2107 31.5304 31 31 31ZM23 33C23 33.5304 22.7893 34.0391 22.4142 34.4142C22.0391 34.7893 21.5304 35 21 35C20.4696 35 19.9609 34.7893 19.5858 34.4142C19.2107 34.0391 19 33.5304 19 33C19 32.4696 19.2107 31.9609 19.5858 31.5858C19.9609 31.2107 20.4696 31 21 31C21.5304 31 22.0391 31.2107 22.4142 31.5858C22.7893 31.9609 23 32.4696 23 33Z" stroke="#9C8881" stroke-width="2" stroke-linecap="round" stroke-linejoin="round"/>
</svg>
