<svg width="52" height="52" viewBox="0 0 52 52" fill="none" xmlns="http://www.w3.org/2000/svg">
<rect width="52" height="52" rx="26" fill="#F5EFEB"/>
<path d="M21.0045 30.9527C20.0195 30.9538 19.0687 30.5914 18.3343 29.935C17.6 29.2786 17.1336 28.3743 17.0246 27.3953C16.9156 26.4164 17.1716 25.4317 17.7436 24.6298C18.3156 23.8279 19.1634 23.2653 20.1245 23.0497C19.8464 21.7528 20.0949 20.3985 20.8153 19.2848C21.5357 18.1711 22.6691 17.3892 23.966 17.1112C25.2629 16.8331 26.6171 17.0816 27.7308 17.802C28.8445 18.5224 29.6264 19.6558 29.9045 20.9527H30.0045C31.2444 20.9514 32.4406 21.4109 33.3608 22.242C34.281 23.0731 34.8596 24.2165 34.9842 25.4502C35.1088 26.6838 34.7706 27.9198 34.0352 28.9181C33.2997 29.9165 32.2196 30.6059 31.0045 30.8527M29.0045 27.9527L26.0045 24.9527M26.0045 24.9527L23.0045 27.9527M26.0045 24.9527V30.9527V35.4526" stroke="#9C8881" stroke-width="2" stroke-linecap="round" stroke-linejoin="round"/>
</svg>
