<svg width="52" height="52" viewBox="0 0 52 52" fill="none" xmlns="http://www.w3.org/2000/svg">
<rect width="52" height="52" rx="26" fill="#F5EFEB"/>
<path d="M26 30L30 26M30 26L26 22M30 26H19M21 30V31C21 31.7956 21.3161 32.5587 21.8787 33.1213C22.4413 33.6839 23.2044 34 24 34H31C31.7956 34 32.5587 33.6839 33.1213 33.1213C33.6839 32.5587 34 31.7956 34 31V21C34 20.2044 33.6839 19.4413 33.1213 18.8787C32.5587 18.3161 31.7956 18 31 18H24C23.2044 18 22.4413 18.3161 21.8787 18.8787C21.3161 19.4413 21 20.2044 21 21V22" stroke="#9C8881" stroke-width="2" stroke-linecap="round" stroke-linejoin="round"/>
</svg>
